<?xml version="1.0" encoding="UTF-8" standalone="no"?>
<!DOCTYPE svg PUBLIC "-//W3C//DTD SVG 1.1//EN"
 "http://www.w3.org/Graphics/SVG/1.1/DTD/svg11.dtd">
<!-- Generated by graphviz version 12.1.0 (0)
 -->
<!-- Pages: 1 -->
<svg width="932pt" height="455pt"
 viewBox="0.00 0.00 931.62 454.50" xmlns="http://www.w3.org/2000/svg" xmlns:xlink="http://www.w3.org/1999/xlink">
<g id="graph0" class="graph" transform="scale(1 1) rotate(0) translate(4 450.5)">
<polygon fill="#191919" stroke="none" points="-4,4 -4,-450.5 927.62,-450.5 927.62,4 -4,4"/>
<!-- a -->
<g id="node1" class="node">
<title>a</title>
<text text-anchor="middle" x="471.12" y="-412.1" font-family="Libertinus Serif" font-size="32.00" fill="#eeeeee">Atayal</text>
</g>
<!-- na -->
<g id="node2" class="node">
<title>na</title>
<text text-anchor="middle" x="288.12" y="-330.6" font-family="Libertinus Serif" font-size="32.00" fill="#eeeeee">Northern Atayal</text>
</g>
<!-- a&#45;&#45;na -->
<g id="edge1" class="edge">
<title>a&#45;&#45;na</title>
<path fill="none" stroke="#eeeeee" d="M421.12,-401.03C395.3,-389.81 363.88,-376.16 338.07,-364.95"/>
</g>
<!-- sa -->
<g id="node3" class="node">
<title>sa</title>
<text text-anchor="middle" x="643.12" y="-330.6" font-family="Libertinus Serif" font-size="32.00" fill="#eeeeee">Southern Atayal</text>
</g>
<!-- a&#45;&#45;sa -->
<g id="edge2" class="edge">
<title>a&#45;&#45;sa</title>
<path fill="none" stroke="#eeeeee" d="M518.12,-401.03C542.39,-389.81 571.92,-376.16 596.18,-364.95"/>
</g>
<!-- nna -->
<g id="node4" class="node">
<title>nna</title>
<text text-anchor="start" x="237.12" y="-249.1" font-family="Libertinus Serif" font-size="32.00" fill="#eeeeee">Nuclear</text>
<text text-anchor="start" x="180.5" y="-211.6" font-family="Libertinus Serif" font-size="32.00" fill="#eeeeee">Northern Atayal</text>
</g>
<!-- na&#45;&#45;nna -->
<g id="edge3" class="edge">
<title>na&#45;&#45;nna</title>
<path fill="none" stroke="#eeeeee" d="M288.12,-319.93C288.12,-309.21 288.12,-295.85 288.12,-283.29"/>
</g>
<!-- ml -->
<g id="node7" class="node">
<title>ml</title>
<text text-anchor="start" x="8" y="-11.1" font-family="Libertinus Serif" font-size="32.00" fill="greenyellow">Matu’uwal</text>
</g>
<!-- na&#45;&#45;ml -->
<g id="edge4" class="edge">
<title>na&#45;&#45;ml</title>
<path fill="none" stroke="#eeeeee" d="M215.35,-319.59C196.25,-310.95 177.11,-299.22 163.12,-283.5 100.04,-212.6 83.65,-93.94 79.49,-45.42"/>
</g>
<!-- nsa -->
<g id="node5" class="node">
<title>nsa</title>
<text text-anchor="start" x="592.12" y="-249.1" font-family="Libertinus Serif" font-size="32.00" fill="#eeeeee">Nuclear</text>
<text text-anchor="start" x="536.25" y="-211.6" font-family="Libertinus Serif" font-size="32.00" fill="#eeeeee">Southern Atayal</text>
</g>
<!-- sa&#45;&#45;nsa -->
<g id="edge7" class="edge">
<title>sa&#45;&#45;nsa</title>
<path fill="none" stroke="#eeeeee" d="M643.12,-319.93C643.12,-309.21 643.12,-295.85 643.12,-283.29"/>
</g>
<!-- pl -->
<g id="node13" class="node">
<title>pl</title>
<text text-anchor="start" x="786.62" y="-11.1" font-family="Libertinus Serif" font-size="32.00" fill="#eeeeee">Plngawan</text>
</g>
<!-- sa&#45;&#45;pl -->
<g id="edge8" class="edge">
<title>sa&#45;&#45;pl</title>
<path fill="none" stroke="#eeeeee" d="M715.36,-319.51C734.31,-310.88 753.28,-299.16 767.12,-283.5 829.9,-212.48 845.86,-93.89 849.84,-45.4"/>
</g>
<!-- sk -->
<g id="node8" class="node">
<title>sk</title>
<text text-anchor="start" x="182" y="-11.1" font-family="Libertinus Serif" font-size="32.00" fill="#eeeeee">Skikun</text>
</g>
<!-- nna&#45;&#45;sk -->
<g id="edge5" class="edge">
<title>nna&#45;&#45;sk</title>
<path fill="none" stroke="#eeeeee" d="M276.98,-200.65C264.31,-154.75 244.08,-81.52 234.1,-45.37"/>
</g>
<!-- sq -->
<g id="node9" class="node">
<title>sq</title>
<text text-anchor="start" x="308.25" y="-11.1" font-family="Libertinus Serif" font-size="32.00" fill="#eeeeee">Squliq</text>
</g>
<!-- nna&#45;&#45;sq -->
<g id="edge6" class="edge">
<title>nna&#45;&#45;sq</title>
<path fill="none" stroke="#eeeeee" d="M299.46,-200.65C312.34,-154.75 332.9,-81.52 343.05,-45.37"/>
</g>
<!-- swa -->
<g id="node6" class="node">
<title>swa</title>
<text text-anchor="start" x="483.75" y="-130.1" font-family="Libertinus Serif" font-size="32.00" fill="#eeeeee">Southwestern</text>
<text text-anchor="start" x="531.38" y="-92.6" font-family="Libertinus Serif" font-size="32.00" fill="#eeeeee">Atayal</text>
</g>
<!-- nsa&#45;&#45;swa -->
<g id="edge9" class="edge">
<title>nsa&#45;&#45;swa</title>
<path fill="none" stroke="#eeeeee" d="M619.38,-200.74C612.44,-188.97 604.86,-176.11 597.91,-164.34"/>
</g>
<!-- kl -->
<g id="node12" class="node">
<title>kl</title>
<text text-anchor="start" x="665.62" y="-11.1" font-family="Libertinus Serif" font-size="32.00" fill="#eeeeee">Klesan</text>
</g>
<!-- nsa&#45;&#45;kl -->
<g id="edge10" class="edge">
<title>nsa&#45;&#45;kl</title>
<path fill="none" stroke="#eeeeee" d="M665.69,-200.57C671.37,-189.16 677.01,-176.57 681.12,-164.5 695.12,-123.47 703.03,-73.19 706.65,-45.19"/>
</g>
<!-- su -->
<g id="node10" class="node">
<title>su</title>
<text text-anchor="start" x="423.88" y="-11.1" font-family="Libertinus Serif" font-size="32.00" fill="#eeeeee">S’uli</text>
</g>
<!-- swa&#45;&#45;su -->
<g id="edge11" class="edge">
<title>swa&#45;&#45;su</title>
<path fill="none" stroke="#eeeeee" d="M524.56,-81.75C509.16,-69.25 492.78,-55.95 479.59,-45.24"/>
</g>
<!-- mw -->
<g id="node11" class="node">
<title>mw</title>
<text text-anchor="start" x="516.75" y="-11.1" font-family="Libertinus Serif" font-size="32.00" fill="#eeeeee">Matu’aw</text>
</g>
<!-- swa&#45;&#45;mw -->
<g id="edge12" class="edge">
<title>swa&#45;&#45;mw</title>
<path fill="none" stroke="#eeeeee" d="M574.12,-81.75C574.12,-69.25 574.12,-55.95 574.12,-45.24"/>
</g>
<!-- ml&#45;&#45;sk -->
<!-- sk&#45;&#45;sq -->
<!-- sq&#45;&#45;su -->
<!-- su&#45;&#45;mw -->
<!-- mw&#45;&#45;kl -->
<!-- kl&#45;&#45;pl -->
</g>
</svg>
